<svg viewBox="0 0 190 36" fill="none" xmlns="http://www.w3.org/2000/svg">
    <path d="M48.4571 8.47107C49.9204 8.47107 51.3762 8.4748 52.8227 8.48412C54.2692 8.49344 55.7232 8.49717 57.1884 8.49717C58.2765 8.49717 59.2321 8.66681 60.0534 9.0061C60.8746 9.34539 61.5615 9.80026 62.1158 10.3707C62.6683 10.9412 63.0882 11.5974 63.3738 12.3375C63.6594 13.0776 63.8031 13.84 63.8031 14.6249C63.8031 15.2848 63.7098 15.9354 63.5213 16.5767C63.3328 17.218 63.0397 17.8071 62.6366 18.3421C62.2353 18.8772 61.7127 19.3283 61.0706 19.6937C60.4285 20.0591 59.6428 20.3126 58.7133 20.4562L64.3108 26.6883L64.6318 27.2233H61.1229L55.419 20.7507H51.4546V27.2233H48.4552V8.47107H48.4571ZM51.4565 11.2245V18.0196H57.1604C57.7856 18.0196 58.3213 17.9264 58.7674 17.7381C59.2135 17.5517 59.5849 17.3056 59.8779 17.0018C60.1728 16.6979 60.3912 16.3455 60.5349 15.9447C60.6768 15.5439 60.7496 15.1208 60.7496 14.6733C60.7496 14.2446 60.6786 13.827 60.5349 13.4169C60.3912 13.0067 60.1784 12.6413 59.8929 12.3207C59.6073 12 59.2415 11.7372 58.7954 11.5321C58.3493 11.3271 57.8136 11.2245 57.1884 11.2245H51.4565Z" fill="white"/>
    <path d="M76.6705 14.0339H79.3489V27.2214H76.7247L76.5903 25.0813C76.3756 25.51 76.0957 25.8792 75.7466 26.1905C75.3976 26.5018 75.015 26.7609 74.595 26.966C74.1751 27.1711 73.7477 27.3221 73.309 27.4209C72.8704 27.5178 72.4467 27.5681 72.0361 27.5681C71.0712 27.5681 70.1753 27.4171 69.3447 27.1133C68.5141 26.8094 67.7992 26.3639 67.202 25.7766C66.6028 25.1875 66.1306 24.4624 65.7835 23.5974C65.4344 22.7324 65.2609 21.7387 65.2609 20.6146C65.2609 19.5091 65.44 18.5285 65.7965 17.6729C66.153 16.8172 66.6402 16.0995 67.2561 15.5197C67.872 14.9399 68.5944 14.4981 69.4249 14.1961C70.2555 13.8922 71.1439 13.7412 72.0902 13.7412C73.0365 13.7412 73.9194 13.9519 74.7425 14.3695C75.5637 14.7889 76.1797 15.3724 76.5903 16.1218L76.6705 14.0339ZM72.3067 16.2542C71.7169 16.2542 71.1645 16.3567 70.6456 16.5618C70.1267 16.7668 69.6732 17.0558 69.2794 17.4305C68.8855 17.8052 68.5776 18.2601 68.3555 18.7951C68.1315 19.3302 68.0214 19.936 68.0214 20.6146C68.0214 21.2932 68.1333 21.9028 68.3555 22.4471C68.5794 22.9915 68.8874 23.4501 69.2794 23.8248C69.6713 24.1995 70.1267 24.4885 70.6456 24.6935C71.1626 24.8986 71.7169 25.0011 72.3067 25.0011C73.253 25.0011 74.0426 24.7867 74.6772 24.3598C75.3099 23.9311 75.7877 23.3923 76.1106 22.7417C76.4316 22.0911 76.5921 21.3864 76.5921 20.6276C76.5921 19.8708 76.4316 19.1661 76.1106 18.5136C75.7896 17.863 75.3118 17.3224 74.6772 16.8955C74.0426 16.4686 73.2512 16.2542 72.3067 16.2542Z" fill="white"/>
    <path d="M85.1517 8.52332V16.0939C85.3663 15.7024 85.6519 15.3576 86.0084 15.0649C86.3649 14.7703 86.7587 14.5261 87.1861 14.3285C87.6154 14.1328 88.0559 13.9855 88.5113 13.8867C88.9667 13.7897 89.3904 13.7394 89.7842 13.7394C90.7305 13.7394 91.6133 13.8867 92.4364 14.1812C93.2577 14.4758 93.9669 14.912 94.5661 15.4918C95.1633 16.0716 95.6318 16.7893 95.9715 17.645C96.3112 18.5006 96.4811 19.4905 96.4811 20.6147C96.4811 21.7034 96.3075 22.6746 95.9585 23.5303C95.6094 24.386 95.1372 25.1093 94.5399 25.6965C93.9408 26.2856 93.2316 26.7312 92.4103 27.0332C91.5891 27.337 90.6969 27.4881 89.732 27.4881C88.8566 27.4881 88.0055 27.3054 87.1749 26.94C86.3443 26.5746 85.6705 25.9724 85.1535 25.1335L84.993 27.2196H82.3949V8.52332H85.1517ZM89.5434 16.3344C88.9723 16.3344 88.4273 16.4369 87.9103 16.642C87.3914 16.8471 86.9416 17.136 86.5571 17.5107C86.1726 17.8854 85.8702 18.3366 85.6463 18.8623C85.4223 19.388 85.3122 19.9715 85.3122 20.6147C85.3122 21.2578 85.4242 21.8451 85.6463 22.3801C85.8684 22.9151 86.1726 23.37 86.5571 23.7447C86.9416 24.1194 87.3877 24.4084 87.8954 24.6134C88.4049 24.8185 88.9536 24.921 89.5416 24.921C90.1127 24.921 90.6521 24.8241 91.1617 24.6265C91.6712 24.4307 92.1117 24.1455 92.4868 23.7708C92.862 23.3961 93.1606 22.9412 93.3846 22.4062C93.6067 21.8711 93.7187 21.2746 93.7187 20.6147C93.7187 19.938 93.6067 19.3358 93.3846 18.8082C93.1606 18.2825 92.862 17.837 92.4868 17.4716C92.1117 17.1062 91.6693 16.8247 91.1617 16.629C90.6558 16.4332 90.1146 16.3344 89.5434 16.3344Z" fill="white"/>
    <path d="M99.0138 8.88493C99.3703 8.60902 99.7641 8.47107 100.192 8.47107C100.621 8.47107 101.013 8.60902 101.369 8.88493C101.726 9.16083 101.905 9.58587 101.905 10.1563C101.905 10.7268 101.726 11.1555 101.369 11.4408C101.013 11.726 100.619 11.8695 100.192 11.8695C99.7623 11.8695 99.3703 11.7279 99.0138 11.4408C98.6573 11.1555 98.4781 10.7286 98.4781 10.1563C98.4781 9.58401 98.6573 9.16083 99.0138 8.88493ZM98.7992 13.9798V27.2214H101.558V13.9798H98.7992Z" fill="white"/>
    <path d="M103.531 14.06H106.075V10.5292L108.86 10.2346V14.06H112.716V16.4406H108.833V22.7268C108.833 23.4221 108.99 23.9572 109.302 24.3319C109.614 24.7066 110.091 24.893 110.735 24.893C111.004 24.893 111.284 24.852 111.579 24.7718C111.874 24.6917 112.154 24.5798 112.423 24.4381L113.225 26.7926C112.725 27.007 112.26 27.158 111.833 27.2475C111.403 27.337 110.922 27.3817 110.386 27.3817C108.994 27.3817 107.926 26.9847 107.185 26.1905C106.444 25.3963 106.075 24.2424 106.075 22.7268V16.4406H103.531V14.06Z" fill="white"/>
    <path d="M120.797 13.7673C121.815 13.7673 122.744 13.9463 123.582 14.3024C124.42 14.6584 125.144 15.145 125.751 15.7602C126.357 16.3754 126.826 17.1024 127.156 17.9395C127.487 18.7784 127.651 19.6788 127.651 20.6407C127.651 21.6213 127.49 22.5273 127.169 23.355C126.848 24.1846 126.387 24.9061 125.79 25.5213C125.191 26.1364 124.469 26.6174 123.621 26.966C122.774 27.3146 121.831 27.488 120.795 27.488C119.76 27.488 118.823 27.3146 117.983 26.966C117.143 26.6174 116.43 26.1364 115.84 25.5213C115.25 24.9061 114.795 24.1846 114.474 23.355C114.153 22.5255 113.992 21.6213 113.992 20.6407C113.992 20.499 113.992 20.3518 113.992 20.1989C113.992 20.0479 114.002 19.9006 114.018 19.7571H124.784C124.588 18.7933 124.136 17.9786 123.431 17.3094C122.725 16.6401 121.846 16.3064 120.794 16.3064C120.114 16.3064 119.521 16.435 119.013 16.6942C118.503 16.9533 118.07 17.2963 117.714 17.7232L115.491 16.1722C116.081 15.4228 116.825 14.8355 117.727 14.4068C118.632 13.9799 119.653 13.7673 120.797 13.7673ZM120.797 24.921C121.869 24.921 122.744 24.6227 123.422 24.0243C124.099 23.4277 124.538 22.6727 124.734 21.7648H116.859C117.055 22.6746 117.492 23.4277 118.171 24.0243C118.851 24.6227 119.726 24.921 120.797 24.921Z" fill="white"/>
    <path d="M132.504 8.52332V16.0939C132.718 15.7024 133.004 15.3576 133.36 15.0649C133.717 14.7703 134.111 14.5261 134.538 14.3285C134.967 14.1328 135.408 13.9855 135.863 13.8867C136.319 13.7897 136.742 13.7394 137.136 13.7394C138.083 13.7394 138.965 13.8867 139.788 14.1812C140.61 14.4758 141.319 14.912 141.918 15.4918C142.515 16.0716 142.984 16.7893 143.324 17.645C143.663 18.5006 143.833 19.4905 143.833 20.6147C143.833 21.7034 143.66 22.6746 143.311 23.5303C142.961 24.386 142.489 25.1093 141.892 25.6965C141.293 26.2856 140.584 26.7312 139.762 27.0332C138.941 27.337 138.049 27.4881 137.084 27.4881C136.209 27.4881 135.356 27.3054 134.527 26.94C133.696 26.5746 133.023 25.9724 132.506 25.1335L132.345 27.2196H129.747V8.52332H132.504ZM136.895 16.3344C136.324 16.3344 135.779 16.4369 135.262 16.642C134.743 16.8471 134.294 17.136 133.909 17.5107C133.525 17.8854 133.222 18.3366 132.998 18.8623C132.774 19.388 132.664 19.9715 132.664 20.6147C132.664 21.2578 132.776 21.8451 132.998 22.3801C133.22 22.9151 133.525 23.37 133.909 23.7447C134.294 24.1194 134.74 24.4084 135.247 24.6134C135.757 24.8185 136.306 24.921 136.894 24.921C137.465 24.921 138.004 24.8241 138.514 24.6265C139.023 24.4307 139.464 24.1455 139.839 23.7708C140.214 23.3961 140.513 22.9412 140.737 22.4062C140.959 21.8711 141.071 21.2746 141.071 20.6147C141.071 19.938 140.959 19.3358 140.737 18.8082C140.513 18.2825 140.214 17.837 139.839 17.4716C139.464 17.1062 139.021 16.8247 138.514 16.629C138.008 16.4332 137.467 16.3344 136.895 16.3344Z" fill="white"/>
    <path d="M156.678 14.0339H159.356V27.2214H156.732L156.598 25.0813C156.383 25.51 156.103 25.8792 155.754 26.1905C155.405 26.5018 155.023 26.7609 154.603 26.966C154.183 27.1711 153.755 27.3221 153.317 27.4209C152.878 27.5178 152.454 27.5681 152.044 27.5681C151.079 27.5681 150.183 27.4171 149.352 27.1133C148.522 26.8094 147.807 26.3639 147.21 25.7766C146.61 25.1875 146.138 24.4624 145.791 23.5974C145.442 22.7324 145.268 21.7387 145.268 20.6146C145.268 19.5091 145.448 18.5285 145.804 17.6729C146.161 16.8172 146.648 16.0995 147.264 15.5197C147.88 14.9399 148.602 14.4981 149.433 14.1961C150.263 13.8922 151.152 13.7412 152.098 13.7412C153.044 13.7412 153.927 13.9519 154.75 14.3695C155.571 14.7889 156.187 15.3724 156.598 16.1218L156.678 14.0339ZM152.314 16.2542C151.725 16.2542 151.172 16.3567 150.653 16.5618C150.134 16.7668 149.681 17.0558 149.287 17.4305C148.893 17.8052 148.585 18.2601 148.363 18.7951C148.139 19.3302 148.029 19.936 148.029 20.6146C148.029 21.2932 148.141 21.9028 148.363 22.4471C148.585 22.9915 148.895 23.4501 149.287 23.8248C149.679 24.1995 150.134 24.4885 150.653 24.6935C151.17 24.8986 151.725 25.0011 152.314 25.0011C153.261 25.0011 154.05 24.7867 154.685 24.3598C155.317 23.9311 155.795 23.3923 156.118 22.7417C156.439 22.0911 156.6 21.3864 156.6 20.6276C156.6 19.8708 156.439 19.1661 156.118 18.5136C155.797 17.863 155.319 17.3224 154.685 16.8955C154.05 16.4686 153.261 16.2542 152.314 16.2542Z" fill="white"/>
    <path d="M162.479 27.2215V14.0079H164.997L165.157 15.9336C166.406 14.5243 167.89 13.8196 169.603 13.8196C170.406 13.8196 171.156 13.9575 171.852 14.2334C172.549 14.5093 173.152 14.9157 173.661 15.4508C174.171 15.9858 174.566 16.6457 174.854 17.4306C175.139 18.2154 175.283 19.1158 175.283 20.1318V27.2196H172.498V20.1579C172.498 19.017 172.19 18.098 171.574 17.4026C170.958 16.7073 170.079 16.3587 168.937 16.3587C168.383 16.3587 167.879 16.4612 167.423 16.6662C166.968 16.8713 166.58 17.1565 166.259 17.5219C165.938 17.8873 165.688 18.3105 165.508 18.7933C165.329 19.2743 165.241 19.7832 165.241 20.3183V27.2196H162.479V27.2215Z" fill="white"/>
    <path d="M180.974 8.52332V19.4365L185.875 14.034H189.224V14.1943L183.52 20.24L190 27.035V27.2215H186.625L180.974 21.1236V27.2215H178.189V8.52332H180.974Z" fill="white"/>
    <path d="M20.7681 24C25.1897 24 29.0458 21.5858 31.112 17.9991C31.112 17.9991 31.112 17.9991 31.1102 17.9972C30.7257 17.3279 30.2777 16.7016 29.7756 16.1218C29.7719 16.1162 29.7682 16.1125 29.7626 16.1069C29.4285 15.721 29.0701 15.3593 28.6894 15.02C28.6875 15.0182 28.6838 15.0163 28.6819 15.0144C28.5008 14.8541 28.3161 14.6994 28.1257 14.5503C28.107 14.5353 28.0884 14.5204 28.0716 14.5074C27.6815 14.2035 27.2727 13.9239 26.8472 13.6703C26.821 13.6554 26.7949 13.6405 26.7688 13.6256C26.5859 13.5193 26.4011 13.4168 26.2126 13.3199C26.1734 13.2994 26.1323 13.277 26.0931 13.2584C25.6638 13.0421 25.2196 12.8519 24.7623 12.6898C24.7119 12.6711 24.6597 12.6543 24.6093 12.6376C24.4301 12.576 24.249 12.5183 24.0661 12.4661C24.0064 12.4493 23.9467 12.4306 23.887 12.4139C23.6592 12.3523 23.4278 12.2945 23.1945 12.2479C23.1908 12.2461 23.1889 12.2461 23.1852 12.2461C22.95 12.1957 22.7111 12.1566 22.4703 12.123C22.4031 12.1137 22.3341 12.1063 22.2669 12.0969C22.0858 12.0746 21.9048 12.0559 21.7219 12.041C21.6509 12.0354 21.5781 12.028 21.5072 12.0242C21.2627 12.0093 21.0163 12 20.7681 12H11.9472C5.34927 12 0 17.3727 0 24H20.7681Z" fill="white"/>
    <path d="M31.8418 19.4979C29.3706 23.1704 25.2084 25.4187 20.7681 25.4187H0.0858154C0.785738 31.3768 5.82705 36 11.9472 36H32.7134V24.0187C32.7134 24.0112 32.7134 24.0056 32.7134 23.9982C32.7134 22.408 32.4036 20.8886 31.8418 19.4979Z" fill="white"/>
    <path d="M11.9472 10.5795H20.7662C25.2084 10.5795 29.3687 12.8277 31.8399 16.5002C32.3999 15.1095 32.7116 13.592 32.7116 12C32.7116 5.37269 27.3642 0 20.7662 0H0V18.0047C2.19682 13.607 6.72486 10.5795 11.9472 10.5795Z" fill="white"/>
</svg>
