<svg xmlns="http://www.w3.org/2000/svg" viewBox="0 0 1396.43 264.6"><defs><clipPath id="a"><path d="M301.57 868.09v176.4h153.32a88.2 88.2 0 000-176.4H301.57z"/></clipPath></defs><path d="M476.28 200.04h-25.79l-41.94-47.65h-29.14v47.65h-22.05V62c21.46 0 42.73.2 64.19.2 31.9 0 48.64 21.86 48.64 45.1 0 19.69-10.24 38.99-37.41 42.93l41.16 45.88zM379.4 82.28v50.02h41.94c18.31 0 26.39-11.62 26.39-24.61 0-12.41-8.08-25.4-26.19-25.4H379.4zm184.52 20.68h19.7v97.08h-19.3l-.98-15.75c-6.51 12.41-21.46 18.32-33.48 18.32-28.36.2-49.82-18.12-49.82-51.2 0-32.49 22.25-50.61 50.22-50.61 13.78 0 26.97 6.5 33.08 17.53zm-63.6 48.44c0 20.09 14.18 32.3 31.51 32.3 41.94 0 41.94-64.39 0-64.39-17.33 0-31.51 12.2-31.51 32.09m126.23-89.01v55.73c6.3-11.42 22.25-17.33 34.06-17.33 27.97 0 49.23 17.53 49.23 50.61 0 32.1-21.46 50.61-49.62 50.61-12.99 0-25.99-4.92-33.67-17.33l-1.18 15.36h-19.1V62.39zm1.18 89.01c0 19.1 13.98 31.7 31.12 31.7 16.93 0 30.71-12.21 30.71-31.7 0-19.89-13.78-31.5-30.71-31.5s-31.12 12.8-31.12 31.5m121.7-76.99c0 16.74-25.21 16.74-25.21 0 .01-16.54 25.21-16.54 25.21 0m-22.84 125.63h20.28v-97.47h-20.28zM800.83 75v28.16h28.35v17.53h-28.55v46.27c0 10.24 4.53 15.95 13.98 15.95a29.367 29.367 0 0012.41-3.35l5.9 17.33a45.841 45.841 0 01-19.49 4.33c-21.07.59-33.08-11.42-33.08-34.26v-46.27h-18.71v-17.53h18.71V77.17zm351.21 27.96h19.69v97.08h-19.3l-.99-15.75c-6.5 12.41-21.46 18.32-33.48 18.32-28.35.2-49.82-18.12-49.82-51.2 0-32.49 22.25-50.61 50.21-50.61 13.79 0 26.98 6.5 33.08 17.53zm-63.6 48.44c0 20.09 14.17 32.3 31.5 32.3 41.95 0 41.95-64.39 0-64.39-17.33 0-31.5 12.2-31.5 32.09m179.59 48.64v-51.99c0-16.74-9.45-27.96-26.19-27.96-16.15 0-27.18 13.19-27.18 29.14v50.81h-20.28v-97.28h18.52l1.18 14.18c9.25-10.43 20.08-15.55 32.69-15.55 23.62 0 41.75 16.73 41.75 46.47v52.18zm62.03-137.65v80.35l36.04-39.78h24.62v1.18l-41.95 44.51 47.66 50.01v1.38h-24.81l-41.56-44.9v44.9h-20.47V62.39zM934.62 172.03a54.447 54.447 0 003.54-19.84 57.566 57.566 0 00-3.55-20.64 43.888 43.888 0 00-10.19-15.81 46.212 46.212 0 00-16.22-10.2 61.694 61.694 0 00-21.92-3.64 66.647 66.647 0 00-11.08.96 63.138 63.138 0 00-10.97 2.88 58.527 58.527 0 00-10.08 4.8 44.47 44.47 0 00-7.45 5.59l13.2 13.03a25.673 25.673 0 014.45-3.06 41.259 41.259 0 016.86-2.97 46.982 46.982 0 017.44-1.83 44.993 44.993 0 017.25-.61c8.86 0 16.01 2.07 21.25 6.14a23.412 23.412 0 019.26 15.91l.23 1.75H840.4c-.72 9.19-.17 17.36 1.65 24.28a45.391 45.391 0 009.14 18.21 38.562 38.562 0 0015.55 10.9 58.87 58.87 0 0021.32 3.64 56.9 56.9 0 0020.83-3.64 44.93 44.93 0 0015.73-10.19 46.02 46.02 0 0010-15.66zm-18.66-8.76c-1.94 6.64-5.54 11.71-10.7 15.06a32.5 32.5 0 01-17.99 4.98c-7.25 0-13.36-1.69-18.13-5.01-4.89-3.4-7.79-8.54-8.63-15.27l-.22-1.74h56.25zm57.66-100.88v55.73c6.3-11.42 22.25-17.33 34.06-17.33 27.97 0 49.23 17.53 49.23 50.61 0 32.1-21.46 50.61-49.62 50.61-12.99 0-25.99-4.92-33.67-17.33l-1.18 15.36h-19.1V62.39zm1.18 89.01c0 19.1 13.98 31.7 31.12 31.7 16.93 0 30.71-12.21 30.71-31.7 0-19.89-13.78-31.5-30.71-31.5s-31.12 12.8-31.12 31.5m-733.29 25a88.193 88.193 0 00-88.19-88.2H88.21a88.2 88.2 0 100 176.4h153.31v-88.05a.755.755 0 01-.01-.15" fill="#126537"/><path d="M153.32 0H0v176.4h153.32a88.2 88.2 0 000-176.4" fill="#7cbd42"/><g clip-path="url(#a)" transform="translate(-301.57 -868.09)"><path d="M543.08 1044.49a88.193 88.193 0 00-88.19-88.2h-65.11a88.2 88.2 0 100 176.4h153.31v-88.05a.755.755 0 01-.01-.15" fill="#0d9a52"/></g></svg>